<svg width="18" height="12" viewBox="0 0 18 12" fill="none" xmlns="http://www.w3.org/2000/svg">
<path d="M8.68065 8.70341C8.68065 9.16207 7.78082 9.53436 6.6704 9.53436C5.56071 9.53436 4.66052 9.16228 4.66052 8.70341V9.57231C4.66052 10.0312 5.56053 10.4033 6.6704 10.4033C7.78082 10.4033 8.68065 10.0314 8.68065 9.57231V8.70341Z" fill="#625D5D"/>
<path d="M8.68065 6.65831C8.68065 7.11739 7.78082 7.48947 6.6704 7.48947C5.56071 7.48947 4.66052 7.1176 4.66052 6.65831C4.66052 6.19944 5.56053 5.82736 6.6704 5.82736C7.78064 5.82736 8.68065 6.19944 8.68065 6.65831Z" fill="#625D5D"/>
<path d="M8.68065 7.24652C8.68065 7.70539 7.78082 8.07747 6.6704 8.07747C5.56071 8.07747 4.66052 7.7056 4.66052 7.24652V8.11541C4.66052 8.57428 5.56053 8.94637 6.6704 8.94637C7.78082 8.94637 8.68065 8.57449 8.68065 8.11541V7.24652Z" fill="#625D5D"/>
<path d="M8.68065 10.2406C8.68065 10.6995 7.78082 11.0715 6.6704 11.0715C5.56071 11.0715 4.66052 10.6997 4.66052 10.2406V11.1097C4.66052 11.5684 5.56053 11.9402 6.6704 11.9402C7.78082 11.9402 8.68065 11.5684 8.68065 11.1097V10.2406Z" fill="#625D5D"/>
<path d="M13.3411 8.70341C13.3411 9.16207 12.4415 9.53436 11.3309 9.53436C10.2213 9.53436 9.3208 9.16228 9.3208 8.70341V9.57231C9.3208 10.0312 10.2208 10.4033 11.3309 10.4033C12.4415 10.4033 13.3411 10.0314 13.3411 9.57231V8.70341Z" fill="#625D5D"/>
<path d="M13.3411 7.24652C13.3411 7.70539 12.4415 8.07747 11.3309 8.07747C10.2213 8.07747 9.3208 7.7056 9.3208 7.24652V8.11541C9.3208 8.57428 10.2208 8.94637 11.3309 8.94637C12.4415 8.94637 13.3411 8.57449 13.3411 8.11541V7.24652Z" fill="#625D5D"/>
<path d="M13.3411 5.78963C13.3411 6.2485 12.4415 6.62079 11.3309 6.62079C10.2213 6.62079 9.3208 6.24871 9.3208 5.78963V6.65852C9.3208 7.1176 10.2208 7.48968 11.3309 7.48968C12.4415 7.48968 13.3411 7.11781 13.3411 6.65852V5.78963Z" fill="#625D5D"/>
<path d="M13.3411 3.74474C13.3411 4.20361 12.4415 4.57569 11.3309 4.57569C10.2213 4.57569 9.3208 4.20382 9.3208 3.74474C9.3208 3.28566 10.2208 2.91357 11.3309 2.91357C12.4415 2.91357 13.3411 3.28545 13.3411 3.74474Z" fill="#625D5D"/>
<path d="M13.3411 4.33252C13.3411 4.7916 12.4415 5.16369 11.3309 5.16369C10.2213 5.16369 9.3208 4.79181 9.3208 4.33252V5.20163C9.3208 5.66029 10.2208 6.03258 11.3309 6.03258C12.4415 6.03258 13.3411 5.6605 13.3411 5.20163V4.33252Z" fill="#625D5D"/>
<path d="M13.3411 10.2406C13.3411 10.6995 12.4415 11.0715 11.3309 11.0715C10.2213 11.0715 9.3208 10.6997 9.3208 10.2406V11.1097C9.3208 11.5684 10.2208 11.9402 11.3309 11.9402C12.4415 11.9402 13.3411 11.5684 13.3411 11.1097V10.2406Z" fill="#625D5D"/>
<path d="M18 8.70341C18 9.16207 17.1005 9.53436 15.9901 9.53436C14.8804 9.53436 13.9799 9.16228 13.9799 8.70341V9.57231C13.9799 10.0312 14.8799 10.4033 15.9901 10.4033C17.1003 10.4033 18 10.0314 18 9.57231V8.70341Z" fill="#625D5D"/>
<path d="M18 7.24652C18 7.70539 17.1005 8.07747 15.9901 8.07747C14.8804 8.07747 13.9799 7.7056 13.9799 7.24652V8.11541C13.9799 8.57428 14.8799 8.94637 15.9901 8.94637C17.1003 8.94637 18 8.57449 18 8.11541V7.24652Z" fill="#625D5D"/>
<path d="M18 5.78963C18 6.2485 17.1005 6.62079 15.9901 6.62079C14.8804 6.62079 13.9799 6.24871 13.9799 5.78963V6.65852C13.9799 7.1176 14.8799 7.48968 15.9901 7.48968C17.1003 7.48968 18 7.11781 18 6.65852V5.78963Z" fill="#625D5D"/>
<path d="M18 4.33252C18 4.7916 17.1005 5.16369 15.9901 5.16369C14.8804 5.16369 13.9799 4.79181 13.9799 4.33252V5.20163C13.9799 5.66029 14.8799 6.03258 15.9901 6.03258C17.1003 6.03258 18 5.6605 18 5.20163V4.33252Z" fill="#625D5D"/>
<path d="M18 2.87584C18 3.33471 17.1005 3.7068 15.9901 3.7068C14.8804 3.7068 13.9799 3.33492 13.9799 2.87584V3.74474C13.9799 4.20361 14.8799 4.57569 15.9901 4.57569C17.1003 4.57569 18 4.20382 18 3.74474V2.87584Z" fill="#625D5D"/>
<path d="M18 0.830953C18 1.28982 17.1005 1.66191 15.9901 1.66191C14.8804 1.66191 13.9799 1.28982 13.9799 0.830953C13.9799 0.371875 14.8799 0 15.9901 0C17.1003 0 18 0.371875 18 0.830953Z" fill="#625D5D"/>
<path d="M18 1.41895C18 1.87782 17.1005 2.2499 15.9901 2.2499C14.8804 2.2499 13.9799 1.87803 13.9799 1.41895V2.28784C13.9799 2.74692 14.8799 3.11901 15.9901 3.11901C17.1003 3.11901 18 2.74713 18 2.28784V1.41895Z" fill="#625D5D"/>
<path d="M18 10.2406C18 10.6995 17.1005 11.0715 15.9901 11.0715C14.8804 11.0715 13.9799 10.6997 13.9799 10.2406V11.1097C13.9799 11.5684 14.8799 11.9402 15.9901 11.9402C17.1003 11.9402 18 11.5684 18 11.1097V10.2406Z" fill="#625D5D"/>
<path d="M4.02012 9.65196C4.02012 10.1115 3.12011 10.4835 2.01006 10.4835C0.900189 10.4835 0 10.1117 0 9.65196C0 9.19331 0.900189 8.82143 2.01006 8.82143C3.12011 8.82143 4.02012 9.19352 4.02012 9.65196Z" fill="#625D5D"/>
<path d="M4.02012 10.2406C4.02012 10.6992 3.12011 11.0711 2.01006 11.0711C0.900189 11.0711 0 10.6992 0 10.2406V11.1093C0 11.5684 0.900189 11.9404 2.01006 11.9404C3.12011 11.9404 4.02012 11.5686 4.02012 11.1093V10.2406Z" fill="#625D5D"/>
</svg>
