<svg width="14" height="14" viewBox="0 0 14 14" fill="none" xmlns="http://www.w3.org/2000/svg">
<path d="M12.851 8.76747C12.347 8.36223 11.707 8.11997 11.0098 8.11997H10.6182H10.3342V5.88018H10.6804H11.0098C11.707 5.88018 12.347 5.63748 12.851 5.23238C13.0168 5.09883 13.1682 4.94759 13.3021 4.78147C13.7076 4.27748 13.95 3.63741 13.95 2.94024C13.95 2.24306 13.7075 1.603 13.3021 1.099C13.1682 0.933185 13.0168 0.781644 12.851 0.648099C12.347 0.242702 11.7068 0 11.0098 0C10.3132 0 9.67285 0.242851 9.16915 0.647801C9.00274 0.781347 8.85135 0.932887 8.7181 1.0987C8.31256 1.6027 8.0703 2.24291 8.0703 2.93994V3.36913V3.76204H5.88003V3.19856V2.94009C5.88003 2.24291 5.63762 1.60285 5.23208 1.09885C5.09853 0.933036 4.94759 0.781496 4.78118 0.64795C4.27718 0.242702 3.63697 0 2.94009 0C2.24291 0 1.60314 0.242851 1.099 0.647801C0.932738 0.781496 0.781644 0.932887 0.647801 1.0987C0.242554 1.6027 0 2.24291 0 2.93994C0 3.63697 0.242702 4.27718 0.647801 4.78118C0.781496 4.94729 0.932738 5.09853 1.099 5.23208C1.60314 5.63748 2.24291 5.87988 2.94009 5.87988H3.26979H3.616V8.11967H3.37984H2.94009C2.24291 8.11967 1.60314 8.36223 1.099 8.76718C0.932738 8.90102 0.781496 9.05211 0.647801 9.21852C0.242554 9.72237 0 10.3621 0 11.0595C0 11.7568 0.242702 12.3964 0.647801 12.9007C0.781496 13.0665 0.932738 13.2184 1.099 13.3515C1.60314 13.7569 2.24291 13.9996 2.94009 13.9996C3.63697 13.9996 4.27718 13.7564 4.78103 13.3515C4.94744 13.2182 5.09839 13.0665 5.23193 12.9007C5.63762 12.3964 5.87988 11.7568 5.87988 11.0595V10.6956V10.2378H8.07015V10.8208V11.0598C8.07015 11.7569 8.3127 12.3967 8.71795 12.901C8.8512 13.0668 9.00259 13.2185 9.169 13.3518C9.67285 13.757 10.3129 14 11.0096 14C11.7068 14 12.3469 13.7569 12.8509 13.3518C13.0167 13.2185 13.1682 13.0668 13.3019 12.901C13.7076 12.3967 13.9497 11.7569 13.9497 11.0598C13.9497 10.3626 13.7072 9.72252 13.3019 9.21882C13.1682 9.05241 13.0168 8.90132 12.851 8.76747ZM8.7181 5.88018V5.23238V5.21602V4.78118V4.41311V3.76189V3.36898V2.93979C8.7181 1.67587 9.74602 0.647652 11.0098 0.647652C12.2739 0.647652 13.3021 1.67587 13.3021 2.93979C13.3021 4.20372 12.2739 5.23193 11.0098 5.23193H10.6804V5.2236H10.3415V5.21542H10.3342V4.41296H10.6804H11.0626C11.3902 4.41296 11.6906 4.29904 11.9269 4.10914C12.005 4.04623 12.0762 3.97529 12.1388 3.89722C12.3292 3.66046 12.4433 3.36006 12.4433 3.03289C12.4433 2.70571 12.3292 2.40501 12.1388 2.16856C12.0762 2.09063 12.0053 2.01925 11.9269 1.95664C11.6905 1.76658 11.3904 1.65252 11.0626 1.65252C10.7359 1.65252 10.4352 1.76658 10.1983 1.95664C10.1205 2.01925 10.0495 2.09033 9.98678 2.16856C9.79628 2.40501 9.68237 2.70557 9.68237 3.03289V3.36898V3.53108V3.76189V4.41311V5.21557V5.23193V5.87988V8.11952H9.47907H8.7181V5.88018ZM10.3342 3.76189V3.53123V3.36913V3.03304C10.3342 2.63136 10.6609 2.30433 11.0626 2.30433C11.4646 2.30433 11.7911 2.63136 11.7911 3.03304C11.7911 3.43486 11.4646 3.76189 11.0626 3.76189H10.6804H10.3342ZM5.88003 4.41311H8.07015V5.21557H5.88003V4.41311ZM5.88003 5.88018H8.07015V8.11982H5.88003V5.88018ZM3.26979 5.2239V5.23208H2.94009C1.67601 5.23208 0.647801 4.20387 0.647801 2.93994C0.647801 1.67601 1.67601 0.647801 2.94009 0.647801C4.20402 0.647801 5.23193 1.67601 5.23193 2.93994V3.19841V3.76189V4.41311V4.78118V5.21572V5.23208V5.87988V8.11967H4.26766V5.88018V5.23238V5.21602V4.41355V3.76233V3.36943V3.03333C4.26766 2.70616 4.1536 2.40546 3.96339 2.169C3.90079 2.09093 3.8297 2.01969 3.75177 1.95709C3.51487 1.76703 3.21447 1.65296 2.88744 1.65296C2.55997 1.65296 2.25957 1.76703 2.02311 1.95709C1.94504 2.01969 1.87381 2.09078 1.8112 2.169C1.62114 2.40546 1.50707 2.70601 1.50707 3.03333C1.50707 3.36065 1.62114 3.66106 1.8112 3.89766C1.87381 3.97559 1.94489 4.04667 2.02311 4.10958C2.25972 4.29949 2.55997 4.4134 2.88744 4.4134H3.26979H3.616V4.7092V5.21587V5.22405H3.26979V5.2239ZM3.616 3.03304V3.36913V3.76204H3.26979H2.88744C2.48562 3.76204 2.15859 3.43501 2.15859 3.03318C2.15859 2.63151 2.48562 2.30448 2.88744 2.30448C3.28912 2.30433 3.616 2.63136 3.616 3.03304ZM11.0098 13.3518C9.74602 13.3518 8.7181 12.3235 8.7181 11.0598V10.8208V10.2378H9.285H9.68237V10.6307V10.9668C9.68237 11.2941 9.79628 11.5953 9.98678 11.8314C10.0495 11.9091 10.1203 11.9802 10.1983 12.0432C10.4353 12.2333 10.7359 12.347 11.0626 12.347C11.3902 12.347 11.6906 12.2333 11.9269 12.0432C12.005 11.9802 12.0762 11.9094 12.1388 11.8314C12.3292 11.5948 12.4433 11.2941 12.4433 10.9668C12.4433 10.6399 12.3292 10.3391 12.1388 10.1026C12.0762 10.0249 12.0053 9.95318 11.9269 9.89042C11.6905 9.70066 11.3904 9.58659 11.0626 9.58659H10.6804H10.3342H9.68237H9.285H8.7181H8.0703H5.88003H5.23208H4.26781H3.61615H3.26994H2.88759C2.56012 9.58659 2.25972 9.70066 2.02326 9.89042C1.94519 9.95318 1.87395 10.0246 1.81134 10.1026C1.62129 10.3391 1.50722 10.6395 1.50722 10.9668C1.50722 11.2941 1.62129 11.5953 1.81134 11.8314C1.87395 11.9091 1.94504 11.9802 2.02326 12.0432C2.25987 12.2333 2.56012 12.347 2.88759 12.347C3.21462 12.347 3.51517 12.2333 3.75192 12.0432C3.8297 11.9802 3.90093 11.9094 3.96354 11.8314C4.15375 11.5948 4.26781 11.2941 4.26781 10.9668V10.6307V10.2378H5.23208V10.6956V11.0598C5.23208 12.3235 4.20416 13.3518 2.94024 13.3518C1.67616 13.3518 0.64795 12.3235 0.64795 11.0598C0.64795 9.79569 1.67616 8.76747 2.94024 8.76747H3.37999H3.61615H10.6184H11.0099H11.0105C12.274 8.76747 13.3022 9.79569 13.3022 11.0598C13.3021 12.3235 12.2739 13.3518 11.0098 13.3518ZM10.3342 10.9665V10.6304V10.2377H10.6804H11.0626C11.4646 10.2377 11.7911 10.5645 11.7911 10.9662C11.7911 11.3679 11.4646 11.6952 11.0626 11.6952C10.6609 11.6955 10.3342 11.3682 10.3342 10.9665ZM3.616 10.2377V10.6304V10.9665C3.616 11.3682 3.28912 11.6955 2.88744 11.6955C2.48562 11.6955 2.15859 11.3682 2.15859 10.9665C2.15859 10.5648 2.48562 10.2378 2.88744 10.2378H3.26979H3.616V10.2377Z" fill="#625D5D"/>
</svg>
