<svg width="13" height="18" viewBox="0 0 13 18" fill="none" xmlns="http://www.w3.org/2000/svg">
<path d="M3.32294 12.2852L4.43575 11.1724H3.94362V10.5517H5.05644L5.67713 9.93103H3.94362V9.31034H5.80569V9.80247L6.42638 9.18178V8.68965H3.32294V12.2852Z" fill="#625D5D"/>
<path d="M4.56427 6.82758H5.80565V7.44827H4.56427V8.06896H6.42634V6.20689H4.56427V6.82758Z" fill="#625D5D"/>
<path d="M7.04704 5.58621H7.66773V3.72414H5.80566V5.58621H6.42635V4.34483H7.04704V5.58621Z" fill="#625D5D"/>
<path d="M8.90912 8.06897V7.57684L8.41699 8.06897H8.90912Z" fill="#625D5D"/>
<path d="M7.04706 6.20689V8.06896H7.53919L8.15988 7.44827H7.66775V6.82758H8.78057L8.90913 6.69902V6.20689H7.04706Z" fill="#625D5D"/>
<path d="M7.06036 2.17241H6.41301C6.37898 2.49975 6.27815 2.81663 6.11676 3.10344H7.35661C7.19521 2.81663 7.09438 2.49975 7.06036 2.17241Z" fill="#625D5D"/>
<path d="M6.42638 18V10.0596L5.80569 10.6803V11.1724H5.31356L4.69287 11.7931H5.80569V12.4138H4.07218L3.32294 13.163V18H6.42638ZM3.94362 13.0345H5.80569V13.6552H3.94362V13.0345ZM3.94362 14.2759H5.80569V14.8966H3.94362V14.2759ZM3.94362 15.5172H5.80569V16.1379H3.94362V15.5172ZM3.94362 16.7586H5.80569V17.3793H3.94362V16.7586Z" fill="#625D5D"/>
<path d="M8.90913 8.68965H7.79631L7.04706 9.4389V18H10.1505V17.3793H8.90913V16.7586H10.1505V16.1379H8.90913V15.5172H10.1505V14.8965H8.90913V14.2759H10.1505V13.6552H8.90913V13.0345H10.1505V12.4138H8.90913V11.7931H10.1505V11.1724H8.90913V10.5517H10.1505V9.93103H8.90913V9.31034H10.1505V8.68965H8.90913ZM8.28844 17.3793H7.66775V16.7586H8.28844V17.3793ZM8.28844 16.1379H7.66775V15.5172H8.28844V16.1379ZM8.28844 14.8965H7.66775V14.2759H8.28844V14.8965ZM8.28844 13.6552H7.66775V13.0345H8.28844V13.6552ZM8.28844 12.4138H7.66775V11.7931H8.28844V12.4138ZM8.28844 11.1724H7.66775V10.5517H8.28844V11.1724ZM8.28844 9.93103H7.66775V9.31034H8.28844V9.93103Z" fill="#625D5D"/>
<path d="M12.232 4.25394L11.7931 3.81503L8.90912 6.69903V7.57684L12.232 4.25394Z" fill="#625D5D"/>
<path d="M0.438905 16.047L3.3229 13.163V12.2852L0 15.6081L0.438905 16.047Z" fill="#625D5D"/>
<path d="M7.04702 0H6.42633V1.55172H7.04702V0Z" fill="#625D5D"/>
</svg>
