<svg width="14" height="14" viewBox="0 0 14 14" fill="none" xmlns="http://www.w3.org/2000/svg">
<path d="M13.8962 4.93074L11.289 0.541262C10.9797 0.0109894 10.4052 -0.136307 9.96335 0.128829L3.01089 4.2679C2.62791 4.48884 2.46588 4.94547 2.64264 5.40209C2.03872 5.78506 1.05183 9.55589 1.05183 9.55589L0.197501 10.2629C0.00601423 10.4249 -0.0529049 10.6901 0.0502036 10.9258L1.55263 13.7244C1.6852 13.9601 1.96507 14.0632 2.21547 13.9601C2.68683 13.7539 3.46751 13.4593 4.17454 13.3562C4.71955 13.2825 5.39712 12.7522 5.50022 12.6049C5.85374 12.1778 9.43307 7.77358 9.43307 7.77358C9.78658 7.33169 9.69821 6.66885 9.22686 6.34479C8.79969 6.0502 8.2105 6.15331 7.87172 6.55101L6.17779 8.62791C5.91265 8.95196 5.42657 8.90777 5.22035 8.55426L4.33657 7.06655L11.7751 2.63289L13.2775 5.15168C13.3512 5.28425 13.307 5.46101 13.1744 5.54939L10.3316 7.24331C10.3316 7.25804 10.3316 7.25805 10.3316 7.27277C10.3316 7.49372 10.2579 7.71466 10.1106 7.89142L8.37253 10.0272L8.41672 10.1009C8.59348 10.4249 9.00591 10.5281 9.32997 10.3513L9.43307 10.2924C9.75712 10.1156 9.88969 9.73264 9.80131 9.39386C9.87496 9.42332 9.94861 9.42332 10.0223 9.42332C10.1548 9.42332 10.2874 9.39386 10.4052 9.32021C10.7735 9.11399 10.9061 8.62791 10.6998 8.25966C10.7735 8.28912 10.8471 8.28912 10.9355 8.28912C11.0681 8.28912 11.2007 8.25966 11.3185 8.18601C11.672 7.99453 11.8046 7.55264 11.6425 7.19913L13.5132 6.09439C13.9551 5.84399 14.1024 5.26952 13.8962 4.93074ZM3.62954 5.87345L3.23183 5.21061C3.14345 5.07804 3.20238 4.90128 3.33494 4.8129L10.2874 0.673824C10.42 0.600175 10.5967 0.644367 10.6851 0.776935L11.0828 1.43977L3.62954 5.87345Z" fill="#625D5D"/>
<path d="M10.7146 5.97654L12.0255 5.19587C12.1581 5.12222 12.2023 4.94546 12.1287 4.81289L11.6868 4.06167C11.6131 3.9291 11.4364 3.88492 11.3038 3.95857L9.99284 4.73925C9.86027 4.81289 9.81608 4.98965 9.88973 5.12222L10.3316 5.87344C10.4053 6.00601 10.582 6.05019 10.7146 5.97654Z" fill="#625D5D"/>
</svg>
