<svg width="14" height="14" viewBox="0 0 14 14" fill="none" xmlns="http://www.w3.org/2000/svg">
<path d="M13.9403 13.6811L9.87767 9.61504C11.9647 7.38269 11.9329 3.85877 9.75021 1.67426C8.66686 0.589977 7.233 0 5.71949 0C4.20597 0 2.75619 0.589977 1.67283 1.67426C-0.55761 3.90661 -0.55761 7.5262 1.67283 9.75854C2.75619 10.8269 4.19004 11.4169 5.71949 11.4169C7.18521 11.4169 8.55533 10.8588 9.62276 9.87016L13.6853 13.9362C13.7172 13.9681 13.765 14 13.8128 14C13.8606 14 13.9084 13.9841 13.9403 13.9362C14.0199 13.8724 14.0199 13.7449 13.9403 13.6811ZM1.94367 1.94533C2.94737 0.940775 4.28563 0.382688 5.70356 0.382688C7.12148 0.382688 8.45974 0.940775 9.46344 1.94533C11.2319 3.71526 11.4868 6.42597 10.2441 8.48292H9.25633V3.10934C9.25633 2.80638 9.00142 2.55125 8.69872 2.55125H7.71095C7.40825 2.55125 7.15334 2.80638 7.15334 3.10934V8.46697H6.73912V6.58542C6.73912 6.28246 6.48421 6.02733 6.18151 6.02733H5.19374C4.89104 6.02733 4.63613 6.28246 4.63613 6.58542V8.48292H4.22191V4.71982C4.22191 4.41686 3.967 4.16173 3.6643 4.16173H2.67653C2.37383 4.16173 2.11892 4.41686 2.11892 4.71982V8.46697H1.16302C-0.0796588 6.42597 0.175249 3.71526 1.94367 1.94533ZM8.8899 8.48292H7.55164V3.10934C7.55164 3.01367 7.63129 2.93394 7.72688 2.93394H8.71465C8.81024 2.93394 8.8899 3.01367 8.8899 3.10934V8.48292ZM6.37269 8.48292H5.03442V6.58542C5.03442 6.48975 5.11408 6.41002 5.20967 6.41002H6.19744C6.29303 6.41002 6.37269 6.48975 6.37269 6.58542V8.48292ZM3.87141 8.48292H2.53314V4.71982C2.53314 4.62415 2.6128 4.54442 2.70839 4.54442H3.69616C3.79175 4.54442 3.87141 4.62415 3.87141 4.71982V8.48292ZM1.94367 9.47153C1.75249 9.28018 1.57724 9.07289 1.41792 8.84966H10.0051C9.8458 9.07289 9.67055 9.28018 9.47937 9.47153C8.47567 10.4761 7.13741 11.0342 5.71949 11.0342C4.28563 11.0342 2.94737 10.492 1.94367 9.47153Z" fill="#625D5D"/>
</svg>
