<svg width="14" height="14" viewBox="0 0 14 14" fill="none" xmlns="http://www.w3.org/2000/svg">
<path d="M7.00009 14C3.1342 14 0 10.866 0 7.00009C0 3.1342 3.13402 0 7.00009 0C8.82804 0 10.551 0.708854 11.8436 1.94787V0.691595C11.8436 0.245573 12.521 0.245573 12.521 0.691595V2.81438C12.521 3.00135 12.3694 3.15308 12.1823 3.15308H9.8596C9.41357 3.15308 9.41357 2.47569 9.8596 2.47569H11.4179C10.2449 1.32944 8.67793 0.677393 7.00009 0.677393C3.50813 0.677393 0.677393 3.50813 0.677393 7.00009C0.677393 10.492 3.50813 13.3226 7.00009 13.3226C10.4919 13.3226 13.3226 10.492 13.3226 7.00009C13.3226 6.55407 14 6.55407 14 7.00009C14 10.866 10.866 14 7.00009 14ZM7.16225 4.68908C8.07407 4.68908 8.81348 5.42849 8.81348 6.34031C8.81348 7.25213 8.07407 7.99155 7.16225 7.99155C6.25043 7.99155 5.51101 7.25213 5.51101 6.34031C5.51101 5.42831 6.25043 4.68908 7.16225 4.68908ZM7.16225 5.36647C6.62454 5.36647 6.1884 5.80243 6.1884 6.34031C6.1884 6.87802 6.62454 7.31416 7.16225 7.31416C7.70013 7.31416 8.13609 6.87802 8.13609 6.34031C8.13609 5.80243 7.70013 5.36647 7.16225 5.36647ZM11.1351 9.52989C11.5809 9.52989 11.5809 10.2073 11.1351 10.2073H3.18939C2.74355 10.2073 2.74355 9.52989 3.18939 9.52989H11.1351ZM3.18939 3.7929H11.1351C11.3221 3.7929 11.4738 3.94463 11.4738 4.1316V8.54903C11.4738 8.736 11.3221 8.88773 11.1351 8.88773H3.18939C3.00243 8.88773 2.8507 8.736 2.8507 8.54903V4.1316C2.8507 3.94463 3.00243 3.7929 3.18939 3.7929ZM10.7964 4.47029H3.52809V8.21034H10.7964V4.47029Z" fill="#625D5D"/>
</svg>
