<svg width="13" height="14" viewBox="0 0 13 14" fill="none" xmlns="http://www.w3.org/2000/svg">
<path d="M5.98664 6.03199C6.1311 5.97368 6.36223 5.9591 6.47779 6.11946C6.53557 6.17778 6.62225 6.19235 6.68003 6.13404C6.73781 6.07573 6.75226 5.98825 6.69447 5.92994C6.56446 5.76958 6.36223 5.6821 6.14554 5.69668C6.14554 5.65295 6.14554 5.60921 6.14554 5.56548C6.14554 5.52174 6.14554 5.478 6.14554 5.43427C6.14554 5.3468 6.08776 5.28848 6.00109 5.28848C5.91441 5.28848 5.85663 5.36138 5.85663 5.43427C5.85663 5.478 5.85663 5.50716 5.85663 5.5509C5.85663 5.62379 5.85663 5.6821 5.85663 5.76958C5.53883 5.90078 5.33659 6.17778 5.36548 6.46935C5.37992 6.67345 5.50993 6.87755 5.74106 7.02333C5.81329 7.06707 5.88552 7.1108 5.95775 7.15454C6.04442 7.19828 6.1311 7.24201 6.20332 7.30033C6.30444 7.37322 6.40556 7.50443 6.39112 7.63563C6.37667 7.70853 6.33333 7.78142 6.27555 7.82515C6.08776 8.01468 5.76996 8.08757 5.49549 8.0001C5.20658 7.91263 5.19213 7.89805 5.04767 7.63563C5.01878 7.56274 4.93211 7.53358 4.85988 7.57732C4.78765 7.60648 4.75876 7.69395 4.8021 7.76684C4.97545 8.11673 5.07657 8.17504 5.42326 8.27709C5.49549 8.30625 5.56772 8.30625 5.65439 8.32083C5.68328 8.4083 5.68328 8.45203 5.66884 8.58324C5.65439 8.65613 5.72662 8.72903 5.79885 8.7436H5.81329C5.88552 8.7436 5.9433 8.68529 5.95775 8.6124C5.97219 8.48119 5.97219 8.4083 5.95775 8.32083C6.17443 8.27709 6.36223 8.18962 6.50668 8.02925C6.6078 7.91263 6.68003 7.796 6.69447 7.66479C6.72337 7.44611 6.6078 7.22743 6.39112 7.06707C6.30444 6.99418 6.20332 6.95044 6.1022 6.89213C6.02998 6.86297 5.97219 6.81923 5.89997 6.7755C5.82774 6.73176 5.66884 6.61513 5.66884 6.45477C5.65439 6.23609 5.82774 6.0903 5.98664 6.03199Z" fill="#625D5D"/>
<path d="M11.0137 8.81649C10.927 8.7436 10.8259 8.69986 10.7248 8.64155C10.6525 8.61239 10.5948 8.56865 10.5225 8.52492C10.4503 8.48118 10.2914 8.36455 10.2914 8.20419C10.2769 8.00009 10.4503 7.8543 10.6092 7.78141C10.7537 7.7231 10.9848 7.70852 11.1003 7.86888C11.1581 7.9272 11.2448 7.94178 11.3026 7.88346C11.3604 7.82515 11.3748 7.73768 11.317 7.67936C11.187 7.519 10.9848 7.43152 10.7681 7.4461C10.7681 7.40237 10.7681 7.35863 10.7681 7.3149C10.7681 7.27116 10.7681 7.22742 10.7681 7.18369C10.7681 7.09622 10.7103 7.0379 10.6236 7.0379C10.537 7.0379 10.4792 7.1108 10.4792 7.18369C10.4792 7.22742 10.4792 7.25658 10.4792 7.30032C10.4792 7.37321 10.4792 7.43152 10.4792 7.519C10.1614 7.6502 9.95915 7.9272 9.98804 8.21877C10.0025 8.42287 10.1325 8.62697 10.3636 8.77275C10.4358 8.81649 10.5081 8.86023 10.5803 8.90396C10.667 8.9477 10.7537 8.99143 10.8259 9.04975C10.927 9.12264 11.0281 9.25385 11.0137 9.38506C10.9992 9.45795 10.9559 9.53084 10.8981 9.57458C10.7103 9.7641 10.3925 9.83699 10.118 9.74952C9.82913 9.66205 9.81469 9.64747 9.67023 9.38506C9.64134 9.31216 9.55467 9.28301 9.48244 9.32674C9.41021 9.3559 9.38132 9.44337 9.42466 9.51626C9.59801 9.86615 9.69912 9.92446 10.0458 10.0265C10.118 10.0557 10.1903 10.0557 10.2769 10.0702C10.3058 10.1577 10.3058 10.2015 10.2914 10.3327C10.2769 10.4201 10.3492 10.493 10.4358 10.493C10.5081 10.493 10.5659 10.4347 10.5803 10.3618C10.5948 10.2306 10.5948 10.1577 10.5803 10.0702C10.797 10.0265 10.9848 9.93904 11.1292 9.77868C11.2304 9.66205 11.3026 9.54542 11.317 9.41421C11.3459 9.19553 11.2304 8.97686 11.0137 8.81649Z" fill="#625D5D"/>
<path d="M12.2127 7.3149C12.0682 7.0379 11.8949 6.84838 11.7071 6.71718C11.6204 6.65886 11.5193 6.61513 11.4182 6.58597C11.4326 6.2215 11.4037 7.56273 11.4615 4.63244C11.4615 4.51581 11.4615 4.39918 11.3893 4.29713C11.2593 4.09303 10.9993 4.10761 10.8837 4.10761C9.51135 4.16593 8.16791 4.09303 6.81003 4.10761L3.76201 4.15135C3.08306 4.16592 2.37523 4.15135 1.68184 4.20966C1.56627 4.22424 1.37848 4.20966 1.20513 4.20966C0.887331 4.20966 0.309507 4.20966 0.0928231 4.60328C0.0205951 4.74907 0.00614949 4.89485 0.00614949 5.04064C-0.0227417 6.11945 0.0494864 7.19827 0.237279 8.24793C0.295062 8.5395 0.352844 8.84565 0.583974 9.07891C0.62731 9.12264 0.670647 9.16638 0.72843 9.19553C1.21958 9.54542 1.99964 9.44337 2.49079 9.47253C3.22752 9.50168 3.99314 9.53084 4.7732 9.53084C5.9144 9.54542 6.98338 9.53084 8.34126 9.48711C8.42794 9.83699 8.58684 10.1577 8.81797 10.4493C8.96242 10.6242 9.10688 10.7554 9.25133 10.8429C9.3669 10.9012 9.49691 10.9595 9.67026 10.9887C10.2192 11.1199 10.8404 11.0762 11.3893 10.8575C11.6204 10.77 11.8082 10.6534 11.9382 10.5222C12.0827 10.3764 12.2127 10.1723 12.3138 9.90988C12.6461 9.03517 12.6172 8.07298 12.2127 7.3149ZM10.8837 4.39918C10.9848 4.39918 11.1004 4.39918 11.1293 4.4575C11.1582 4.48665 11.1582 4.55955 11.1582 4.63244H11.3026H11.1582L11.1437 5.50715C10.7681 5.52173 10.3925 5.44884 10.0314 5.31763C9.95917 5.28848 9.87249 5.25932 9.81471 5.201C9.61247 5.04064 9.59803 4.71991 9.59803 4.41376C10.0314 4.41376 10.4648 4.41376 10.8837 4.39918ZM0.280616 5.0698C0.280616 4.95317 0.295062 4.83654 0.338398 4.76365C0.453963 4.54497 0.815103 4.51581 1.19069 4.51581C1.42182 4.51581 1.49405 4.51581 1.58072 4.51581C1.6385 4.74907 1.62406 4.9969 1.55183 5.21558C1.39293 5.65294 1.0029 6.0174 0.381735 6.30898C0.338398 6.32355 0.309507 6.36729 0.309507 6.4256C0.26617 5.97367 0.26617 5.52173 0.280616 5.0698ZM8.0379 9.22469C8.0379 9.21011 8.02346 9.19553 8.00901 9.18096C7.92234 9.07891 7.85011 8.96228 7.77788 8.84565C7.73455 8.77275 7.64787 8.75818 7.57564 8.80191C7.50342 8.84565 7.48897 8.93312 7.53231 9.00601C7.57564 9.09348 7.63343 9.16638 7.69121 9.23927C7.60454 9.23927 7.51786 9.23927 7.44563 9.23927L7.33007 8.96228C7.30118 8.88938 7.2145 8.84565 7.14228 8.87481C7.07005 8.90396 7.02671 8.99143 7.0556 9.06433L7.12783 9.25385C6.33332 9.26843 5.53882 9.26843 4.75875 9.26843C3.99314 9.25385 3.22752 9.23927 2.49079 9.21011C2.37523 9.21011 2.24522 9.21011 2.12965 9.21011C1.68184 9.21011 1.19069 9.21011 0.872886 8.99143C0.843994 8.97685 0.815103 8.9477 0.771766 8.90396C0.612865 8.7436 0.555082 8.48118 0.511746 8.23335C0.482854 8.07298 0.453963 7.91262 0.439518 7.75225C0.901777 7.78141 1.24847 7.89804 1.50849 8.10214C1.76851 8.32082 1.92741 8.68528 1.91297 9.02059C1.91297 9.10806 1.97075 9.16638 2.05742 9.16638C2.12965 9.16638 2.20188 9.10806 2.20188 9.02059C2.21633 8.58323 2.02853 8.14588 1.69628 7.86888C1.39293 7.60647 0.959559 7.46068 0.410626 7.4461C0.36729 7.12538 0.338398 6.81923 0.323953 6.4985C0.323953 6.51308 0.323953 6.51308 0.323953 6.52765C0.352844 6.60055 0.439518 6.6297 0.511746 6.60055C1.20513 6.26524 1.65295 5.84246 1.84074 5.33221C1.92741 5.0698 1.95631 4.77823 1.89852 4.51581C2.54858 4.47208 3.18418 4.48665 3.77645 4.47208L6.82447 4.42834C7.64787 4.41376 8.35571 4.44292 9.33801 4.44292C9.33801 4.71991 9.33801 5.18643 9.65581 5.44884C9.74248 5.52173 9.85805 5.56547 9.94472 5.6092C10.3059 5.75499 10.6959 5.8133 11.1004 5.8133C11.1148 5.8133 11.1437 5.8133 11.1582 5.8133L11.1437 6.52765C11.1148 6.52765 11.0859 6.51308 11.0426 6.51308C11.0715 6.46934 11.0859 6.4256 11.1004 6.36729C11.1148 6.2944 11.0715 6.20693 10.9993 6.19235C10.927 6.17777 10.8404 6.2215 10.8259 6.2944C10.8115 6.33813 10.797 6.36729 10.7681 6.39645C10.7392 6.4256 10.7392 6.45476 10.7392 6.48392C10.6959 6.48392 10.6526 6.48392 10.6092 6.48392C10.6526 6.41103 10.667 6.33813 10.6814 6.25066C10.6814 6.16319 10.6237 6.10488 10.5514 6.0903C10.4648 6.0903 10.407 6.14861 10.3925 6.2215C10.3925 6.23608 10.3925 6.26524 10.3781 6.27982C10.3492 6.2944 10.3203 6.32355 10.3059 6.35271C10.2914 6.38187 10.2914 6.4256 10.3059 6.46934C10.2625 6.46934 10.2047 6.48392 10.1614 6.48392L10.2481 6.2944C10.277 6.2215 10.2481 6.13403 10.1759 6.10488C10.1036 6.07572 10.017 6.10488 9.98806 6.17777L9.81471 6.48392C9.81471 6.4985 9.80027 6.51308 9.80027 6.52765C9.72804 6.54223 9.65581 6.57139 9.58358 6.60055L9.65581 6.30898C9.67026 6.23608 9.62692 6.14861 9.54025 6.13403C9.46802 6.11945 9.38134 6.16319 9.3669 6.25066L9.28023 6.65886C9.26578 6.7026 9.28022 6.73175 9.29467 6.76091C9.23689 6.80465 9.16466 6.84838 9.10688 6.89212V6.80465C9.10688 6.71718 9.0491 6.65886 8.97687 6.64428C8.89019 6.64428 8.83241 6.7026 8.81797 6.77549L8.80352 7.02333C8.80352 7.06706 8.81797 7.1108 8.84686 7.13995C8.78908 7.19827 8.74574 7.27116 8.68796 7.32948C8.67351 7.242 8.64462 7.15453 8.60128 7.06706C8.57239 6.99417 8.48572 6.96501 8.41349 6.99417C8.34126 7.02333 8.31237 7.1108 8.34126 7.18369C8.3846 7.27116 8.41349 7.35863 8.42794 7.46068C8.44238 7.519 8.48572 7.56273 8.52905 7.57731C8.45683 7.7231 8.3846 7.86888 8.34126 8.02925C8.31237 7.9272 8.28348 7.82515 8.24014 7.73768C8.21125 7.66478 8.12458 7.63563 8.05235 7.66478C7.98012 7.69394 7.95123 7.78141 7.98012 7.85431C8.0379 7.98551 8.08124 8.11672 8.11013 8.24793C8.12458 8.32082 8.18236 8.36456 8.25459 8.36456H8.26903C8.25459 8.46661 8.24014 8.56866 8.2257 8.65613V8.67071C8.15347 8.58323 8.09569 8.49576 8.0379 8.40829C7.99457 8.3354 7.90789 8.32082 7.83567 8.36456C7.76344 8.40829 7.74899 8.49576 7.79233 8.56866C7.86456 8.68528 7.95123 8.81649 8.0379 8.91854C8.0668 8.9477 8.11013 8.96228 8.15347 8.96228C8.18236 8.96228 8.19681 8.9477 8.2257 8.9477C8.2257 9.03517 8.24014 9.10806 8.25459 9.19553C8.18236 9.22469 8.11013 9.22469 8.0379 9.22469ZM11.2737 10.5951C10.7826 10.7846 10.2336 10.8283 9.72804 10.7117C9.58358 10.6825 9.48246 10.6388 9.38134 10.5951C9.26578 10.5222 9.15022 10.4201 9.03465 10.2743C8.68796 9.83699 8.50016 9.25385 8.52905 8.69986C8.57239 7.95636 9.06354 7.0379 9.88694 6.81923C10.147 6.74633 10.4359 6.74633 10.7103 6.76091C11.0426 6.77549 11.3171 6.81923 11.5337 6.96501C11.5771 6.99417 11.606 7.02333 11.6493 7.05248L11.5193 7.16911C11.4615 7.22743 11.4471 7.3149 11.5048 7.37321C11.5626 7.43153 11.6493 7.4461 11.7071 7.38779L11.8371 7.27116C11.8804 7.32948 11.9093 7.38779 11.9382 7.4461C11.9671 7.48984 11.9816 7.53358 11.996 7.57731C11.9816 7.59189 11.9671 7.60647 11.9527 7.62105C11.9093 7.67936 11.866 7.73768 11.8227 7.78141C11.7649 7.83973 11.7649 7.9272 11.8227 7.98551C11.8804 8.04383 11.9671 8.04383 12.0249 7.98551C12.0538 7.95635 12.0971 7.91262 12.126 7.88346C12.1549 7.97093 12.1693 8.05841 12.1982 8.14588C12.1693 8.14588 12.1405 8.16046 12.1116 8.18961C12.0682 8.24793 12.0104 8.29166 11.9527 8.3354C11.8949 8.37913 11.8804 8.48118 11.9238 8.5395C11.9671 8.59781 12.0682 8.61239 12.126 8.56866C12.1549 8.5395 12.1982 8.51034 12.2271 8.48118C12.2416 8.62697 12.2416 8.75818 12.2271 8.90396L12.1116 8.97685C12.0393 9.02059 12.0249 9.10806 12.0682 9.18096C12.0971 9.22469 12.1405 9.25385 12.1838 9.25385C12.1549 9.38506 12.126 9.51626 12.0827 9.64747C12.0682 9.64747 12.0538 9.64747 12.0538 9.64747C11.9816 9.63289 11.8949 9.69121 11.8949 9.7641C11.8804 9.83699 11.9238 9.89531 11.996 9.92446C11.9382 10.0557 11.866 10.1723 11.7938 10.2598L11.4904 10.2015C11.4182 10.1869 11.3315 10.2452 11.3171 10.3181C11.3026 10.391 11.3604 10.4784 11.4326 10.493L11.4904 10.5076C11.4326 10.5222 11.3604 10.5659 11.2737 10.5951Z" fill="#625D5D"/>
<path d="M0.800675 2.08119C0.829566 2.08119 0.858457 2.06662 0.887349 2.05204C2.15856 1.03154 3.58868 0.433814 5.00434 0.317186C6.49224 0.185979 7.98014 0.637914 9.03467 1.52721C8.81798 1.68757 8.6013 1.86251 8.39906 2.02288C8.37017 2.05204 8.31239 2.09577 8.2835 2.18324C8.25461 2.29987 8.32683 2.4165 8.45684 2.47482C8.58685 2.53313 8.73131 2.54771 8.86132 2.57687C9.46804 2.66434 9.97363 2.8247 10.6237 2.64976C10.6526 2.64976 10.7104 2.6206 10.7537 2.56229C10.797 2.50397 10.7826 2.44566 10.7826 2.4165L10.7248 1.65841C10.7104 1.48347 10.6959 1.26479 10.6237 1.08985C10.5226 0.827436 10.3348 0.725386 10.0748 0.812857C9.9014 0.871172 9.72806 1.00238 9.61249 1.10443C9.5836 1.11901 9.55471 1.14816 9.54026 1.16274C9.45359 1.22106 9.36692 1.29395 9.29469 1.35226C8.15349 0.360922 6.59336 -0.120172 4.97545 0.0256142C3.502 0.142243 2.02855 0.769122 0.714001 1.81878C0.656219 1.86251 0.641773 1.96457 0.68511 2.02288C0.714001 2.05204 0.757338 2.08119 0.800675 2.08119ZM9.91585 1.22106C9.91585 1.30853 9.97363 1.38142 10.0603 1.38142C10.147 1.38142 10.2048 1.32311 10.2048 1.23564V1.07527C10.2625 1.06069 10.3059 1.08985 10.3492 1.1919V1.20648C10.277 1.20648 10.2048 1.25021 10.1903 1.32311L10.1325 1.76047C10.1181 1.84794 10.1903 1.92083 10.277 1.92083C10.3492 1.92083 10.407 1.86252 10.4214 1.78962L10.4359 1.68757L10.4937 2.35819C9.94474 2.48939 9.49693 2.34361 8.9191 2.25614C8.81798 2.24156 8.71686 2.22698 8.63019 2.19782C8.9191 1.97914 9.19357 1.74589 9.48248 1.52721C9.52582 1.58552 9.5836 1.6001 9.65583 1.57094C9.72806 1.54179 9.77139 1.45431 9.7425 1.38142C9.7425 1.36684 9.72806 1.36684 9.72806 1.35226C9.7425 1.33769 9.77139 1.32311 9.78584 1.30853C9.81473 1.29395 9.85807 1.25021 9.91585 1.22106Z" fill="#625D5D"/>
<path d="M10.8837 11.9509C9.61248 12.9714 8.18236 13.5691 6.7667 13.6857C5.2788 13.817 3.7909 13.365 2.73637 12.4757C2.95306 12.3154 3.16974 12.1404 3.37198 11.9801C3.40087 11.9509 3.45865 11.9072 3.48755 11.8197C3.51644 11.7031 3.44421 11.5864 3.3142 11.5281C3.18419 11.4698 3.03973 11.4552 2.90972 11.4261C2.31745 11.3386 1.79741 11.1782 1.14736 11.3532C1.11847 11.3532 1.06068 11.3823 1.01735 11.4406C0.974011 11.499 0.988456 11.5573 0.988456 11.5864L1.04624 12.3445C1.06068 12.5195 1.07513 12.7381 1.14736 12.9131C1.21959 13.1172 1.3496 13.2192 1.52294 13.2192C1.58073 13.2192 1.62406 13.2047 1.68185 13.1901C1.85519 13.1318 2.02854 13.0006 2.1441 12.8985C2.173 12.8839 2.20189 12.8548 2.21633 12.8402C2.30301 12.7819 2.38968 12.709 2.46191 12.6507C3.632 13.6712 5.20657 14.1085 6.75225 13.9773C8.2257 13.8461 9.69915 13.2338 11.0281 12.1842C11.0859 12.1404 11.1004 12.0384 11.057 11.9801C11.0281 11.9072 10.9415 11.8926 10.8837 11.9509ZM2.07188 12.6069C1.95631 12.6944 1.76852 12.8548 1.60962 12.9131C1.52294 12.9422 1.46516 12.9422 1.42182 12.811C1.36404 12.6652 1.3496 12.4903 1.33515 12.3299L1.27737 11.6302C1.3496 11.6156 1.40738 11.601 1.47961 11.601C1.49405 11.6593 1.52294 11.7176 1.55183 11.776C1.59517 11.8488 1.68185 11.8634 1.75407 11.8197C1.8263 11.776 1.84075 11.6885 1.79741 11.6156C1.78296 11.601 1.78296 11.5864 1.78296 11.5719C1.84075 11.5719 1.89853 11.5719 1.94187 11.5864C1.94187 11.6302 1.94187 11.6885 1.94187 11.7322C1.95631 11.8051 2.02854 11.8634 2.10077 11.8634C2.173 11.8488 2.23078 11.776 2.23078 11.7031C2.23078 11.6739 2.23078 11.6593 2.23078 11.6302C2.30301 11.6447 2.37523 11.6593 2.44746 11.6593L2.46191 11.7905C2.47635 11.8634 2.53414 11.9217 2.60636 11.9217C2.69304 11.9217 2.76527 11.8488 2.75082 11.7614V11.7176C2.79416 11.7176 2.82305 11.7322 2.86638 11.7322C2.9675 11.7468 3.06862 11.7614 3.1553 11.7905C2.8086 12.0529 2.44746 12.3299 2.07188 12.6069Z" fill="#625D5D"/>
</svg>
